<?xml version="1.0" encoding="UTF-8" standalone="no"?>
<svg width="100px" height="100px" viewBox="0 0 100 100" version="1.1" xmlns="http://www.w3.org/2000/svg" xmlns:xlink="http://www.w3.org/1999/xlink" xmlns:sketch="http://www.bohemiancoding.com/sketch/ns">
    <!-- Generator: Sketch 3.3.3 (12081) - http://www.bohemiancoding.com/sketch -->
    <title>Rectangle 2 + Imported Layers</title>
    <desc>Created with Sketch.</desc>
    <defs></defs>
    <g id="Page-3" stroke="none" stroke-width="1" fill="none" fill-rule="evenodd" sketch:type="MSPage">
        <g id="view_1_1440" sketch:type="MSArtboardGroup">
            <g id="Rectangle-2-+-Imported-Layers" sketch:type="MSLayerGroup">
                <rect id="Rectangle-2" fill="#FFFFFF" sketch:type="MSShapeGroup" x="0" y="0" width="100" height="100"></rect>
                <g id="Imported-Layers" transform="translate(25.428571, 25.217071)" fill="#FF556A" sketch:type="MSShapeGroup">
                    <path d="M16.4017593,16.3523093 L0,16.3523093 L0,0.0211836735 L16.4017593,16.3523093" id="Fill-1"></path>
                    <path d="M32.9421657,33.0762621 L16.3114286,33.0762621 L16.3114286,16.4940294 L32.9421657,33.0762621" id="Fill-2"></path>
                    <path d="M49.4285714,16.3523093 L32.9421657,16.3523093 L49.4285714,0.0211836735 L49.4285714,16.3523093" id="Fill-3"></path>
                    <path d="M32.87,16.3523093 L49.4285714,16.3523093 L49.4285714,33.0762621 L32.87,33.0762621 L32.87,16.3523093 Z" id="Fill-4" fill-opacity="0.25"></path>
                    <path d="M32.87,33.0762621 L49.4285714,33.0762621 L49.4285714,49.4285714 L32.87,49.4285714 L32.87,33.0762621 Z" id="Fill-5"></path>
                    <path d="M0.00741428571,16.3523093 L16.3114286,16.3523093 L16.3114286,33.0762621 L0.00741428571,33.0762621 L0.00741428571,16.3523093 Z" id="Fill-6" fill-opacity="0.55"></path>
                    <path d="M0.00741428571,33.0762621 L16.3114286,33.0762621 L16.3114286,49.4285714 L0.00741428571,49.4285714 L0.00741428571,33.0762621 Z" id="Fill-7" fill-opacity="0.25"></path>
                </g>
            </g>
        </g>
    </g>
</svg>