<?xml version="1.0" encoding="UTF-8" standalone="no"?>
<svg width="159px" height="23px" viewBox="0 0 159 23" version="1.1" xmlns="http://www.w3.org/2000/svg" xmlns:xlink="http://www.w3.org/1999/xlink" xmlns:sketch="http://www.bohemiancoding.com/sketch/ns">
    <!-- Generator: Sketch 3.3.3 (12081) - http://www.bohemiancoding.com/sketch -->
    <title>MOSAINK</title>
    <desc>Created with Sketch.</desc>
    <defs></defs>
    <g id="Page-3" stroke="none" stroke-width="1" fill="none" fill-rule="evenodd" sketch:type="MSPage">
        <g id="view_1_1440" sketch:type="MSArtboardGroup" transform="translate(-642.000000, -40.000000)" fill="#222222">
            <path d="M642.3,40.76 L649.38,40.76 L654.27,54.62 L654.33,54.62 L659.25,40.76 L666.3,40.76 L666.3,62 L661.62,62 L661.62,45.71 L661.56,45.71 L655.98,62 L652.41,62 L647.04,45.71 L646.98,45.71 L646.98,62 L642.3,62 L642.3,40.76 Z M671.48,51.38 C671.48,49.6799915 671.764997,48.1400069 672.335,46.76 C672.905003,45.3799931 673.699995,44.2050049 674.72,43.235 C675.740005,42.2649952 676.949993,41.5200026 678.35,41 C679.750007,40.4799974 681.279992,40.22 682.94,40.22 C684.600008,40.22 686.129993,40.4799974 687.53,41 C688.930007,41.5200026 690.139995,42.2649952 691.16,43.235 C692.180005,44.2050049 692.974997,45.3799931 693.545,46.76 C694.115003,48.1400069 694.4,49.6799915 694.4,51.38 C694.4,53.0800085 694.115003,54.6199931 693.545,56 C692.974997,57.3800069 692.180005,58.5549951 691.16,59.525 C690.139995,60.4950049 688.930007,61.2399974 687.53,61.76 C686.129993,62.2800026 684.600008,62.54 682.94,62.54 C681.279992,62.54 679.750007,62.2800026 678.35,61.76 C676.949993,61.2399974 675.740005,60.4950049 674.72,59.525 C673.699995,58.5549951 672.905003,57.3800069 672.335,56 C671.764997,54.6199931 671.48,53.0800085 671.48,51.38 L671.48,51.38 Z M676.34,51.38 C676.34,52.380005 676.494998,53.2949958 676.805,54.125 C677.115002,54.9550042 677.559997,55.674997 678.14,56.285 C678.720003,56.895003 679.414996,57.3699983 680.225,57.71 C681.035004,58.0500017 681.939995,58.22 682.94,58.22 C683.940005,58.22 684.844996,58.0500017 685.655,57.71 C686.465004,57.3699983 687.159997,56.895003 687.74,56.285 C688.320003,55.674997 688.764998,54.9550042 689.075,54.125 C689.385002,53.2949958 689.54,52.380005 689.54,51.38 C689.54,50.3999951 689.385002,49.4900042 689.075,48.65 C688.764998,47.8099958 688.320003,47.0850031 687.74,46.475 C687.159997,45.864997 686.465004,45.3900017 685.655,45.05 C684.844996,44.7099983 683.940005,44.54 682.94,44.54 C681.939995,44.54 681.035004,44.7099983 680.225,45.05 C679.414996,45.3900017 678.720003,45.864997 678.14,46.475 C677.559997,47.0850031 677.115002,47.8099958 676.805,48.65 C676.494998,49.4900042 676.34,50.3999951 676.34,51.38 L676.34,51.38 Z M710.08,45.95 C709.699998,45.4699976 709.185003,45.1150012 708.535,44.885 C707.884997,44.6549988 707.270003,44.54 706.69,44.54 C706.349998,44.54 706.000002,44.5799996 705.64,44.66 C705.279998,44.7400004 704.940002,44.8649992 704.62,45.035 C704.299998,45.2050008 704.040001,45.4299986 703.84,45.71 C703.639999,45.9900014 703.54,46.329998 703.54,46.73 C703.54,47.3700032 703.779998,47.8599983 704.26,48.2 C704.740002,48.5400017 705.344996,48.8299988 706.075,49.07 C706.805004,49.3100012 707.589996,49.5499988 708.43,49.79 C709.270004,50.0300012 710.054996,50.3699978 710.785,50.81 C711.515004,51.2500022 712.119998,51.8399963 712.6,52.58 C713.080002,53.3200037 713.32,54.3099938 713.32,55.55 C713.32,56.7300059 713.100002,57.7599956 712.66,58.64 C712.219998,59.5200044 711.625004,60.2499971 710.875,60.83 C710.124996,61.4100029 709.255005,61.8399986 708.265,62.12 C707.274995,62.4000014 706.230006,62.54 705.13,62.54 C703.749993,62.54 702.470006,62.3300021 701.29,61.91 C700.109994,61.4899979 699.010005,60.8100047 697.99,59.87 L701.32,56.21 C701.800002,56.8500032 702.404996,57.3449983 703.135,57.695 C703.865004,58.0450017 704.619996,58.22 705.4,58.22 C705.780002,58.22 706.164998,58.1750004 706.555,58.085 C706.945002,57.9949996 707.294998,57.8600009 707.605,57.68 C707.915002,57.4999991 708.164999,57.2700014 708.355,56.99 C708.545001,56.7099986 708.64,56.3800019 708.64,56 C708.64,55.3599968 708.395002,54.8550019 707.905,54.485 C707.414998,54.1149981 706.800004,53.8000013 706.06,53.54 C705.319996,53.2799987 704.520004,53.0200013 703.66,52.76 C702.799996,52.4999987 702.000004,52.1500022 701.26,51.71 C700.519996,51.2699978 699.905002,50.6900036 699.415,49.97 C698.924998,49.2499964 698.68,48.3000059 698.68,47.12 C698.68,45.9799943 698.904998,44.9800043 699.355,44.12 C699.805002,43.2599957 700.404996,42.5400029 701.155,41.96 C701.905004,41.3799971 702.769995,40.9450014 703.75,40.655 C704.730005,40.3649985 705.739995,40.22 706.78,40.22 C707.980006,40.22 709.139994,40.3899983 710.26,40.73 C711.380006,41.0700017 712.389995,41.639996 713.29,42.44 L710.08,45.95 Z M725.79,40.76 L729.66,40.76 L738.9,62 L733.62,62 L731.79,57.5 L723.54,57.5 L721.77,62 L716.61,62 L725.79,40.76 Z M727.59,46.94 L725.01,53.54 L730.2,53.54 L727.59,46.94 Z M742.97,40.76 L747.65,40.76 L747.65,62 L742.97,62 L742.97,40.76 Z M753.91,40.76 L760.27,40.76 L769.3,55.52 L769.36,55.52 L769.36,40.76 L774.04,40.76 L774.04,62 L767.92,62 L758.65,46.88 L758.59,46.88 L758.59,62 L753.91,62 L753.91,40.76 Z M780.54,40.76 L785.22,40.76 L785.22,49.58 L793.47,40.76 L799.59,40.76 L790.14,50.63 L800.4,62 L793.86,62 L785.22,51.92 L785.22,62 L780.54,62 L780.54,40.76 Z" id="MOSAINK" sketch:type="MSShapeGroup"></path>
        </g>
    </g>
</svg>